Coordinates
version=1
nRows=11
nColumns=40
inDegrees=yes

Units are S.I. units (second, meters, Newtons, ...)
Angles are in degrees.

endheader
time	pelvis_tilt	pelvis_list	pelvis_rotation	pelvis_tx	pelvis_ty	pelvis_tz	hip_flexion_r	hip_adduction_r	hip_rotation_r	knee_angle_r	knee_angle_r_beta	ankle_angle_r	subtalar_angle_r	mtp_angle_r	hip_flexion_l	hip_adduction_l	hip_rotation_l	knee_angle_l	knee_angle_l_beta	ankle_angle_l	subtalar_angle_l	mtp_angle_l	lumbar_extension	lumbar_bending	lumbar_rotation	arm_flex_r	arm_add_r	arm_rot_r	elbow_flex_r	pro_sup_r	wrist_flex_r	wrist_dev_r	arm_flex_l	arm_add_l	arm_rot_l	elbow_flex_l	pro_sup_l	wrist_flex_l	wrist_dev_l
     54.97500000	     -4.61462870	     -6.13993205	      4.24894438	      0.97934910	      0.91723452	      0.45797273	     -3.20295641	      6.06368838	    -18.09181504	      7.27251129	      7.27251129	     17.15501341	      7.92844869	     -2.99259822	     33.57394465	     -7.33347406	     -3.90263796	     21.46972066	     21.46972066	      4.22734463	    -10.70662047	     10.04556979	     -7.36457196	      7.80110799	      4.21884803	     40.89202227	    -13.08689351	     -9.93607169	     85.69671084	     44.98839306	      0.00000000	      0.00000000	     -7.17872997	     -7.71953460	     13.12139842	     24.26263450	     43.59335867	      0.00000000	      0.00000000
     54.98735714	     -4.78845868	     -6.10992611	      3.93324313	      0.98126416	      0.91603104	      0.45626902	     -3.51774094	      5.80296161	    -17.98390924	      7.65166987	      7.65166987	     17.78016846	      8.33336736	     -2.43561246	     33.22427219	     -7.15817138	     -3.73610665	     22.11142718	     22.11142718	      3.39438702	    -11.66100710	      9.42764497	     -7.07600787	      7.73853532	      4.38512059	     41.54812384	    -12.97009178	     -9.88263134	     86.75612083	     44.97154393	      0.00000000	      0.00000000	     -8.59282061	     -8.01588898	     13.29133016	     25.24851887	     43.59287544	      0.00000000	      0.00000000
     54.99971429	     -5.00929131	     -6.03483383	      3.62341513	      0.98310262	      0.91493848	      0.45433608	     -3.73361687	      5.45847733	    -17.91814952	      8.10521748	      8.10521748	     18.33365476	      8.66797828	     -1.90826032	     32.92402439	     -6.91115090	     -3.49001706	     22.70045699	     22.70045699	      2.70857470	    -12.62014610	      8.84414296	     -6.76124648	      7.66534014	      4.54955254	     42.01345993	    -12.96364078	     -9.84861687	     87.79972943	     44.95932270	      0.00000000	      0.00000000	     -9.85985218	     -8.22202302	     13.48091356	     26.06743598	     43.61642547	      0.00000000	      0.00000000
     55.01207143	     -5.17599528	     -5.90805628	      3.35266041	      0.98499388	      0.91422151	      0.45225499	     -4.07699574	      5.08949563	    -17.68156384	      8.37937148	      8.37937148	     18.53121890	      8.73379615	     -1.93114224	     32.61666140	     -6.67986134	     -3.46030206	     23.35266819	     23.35266819	      2.57502316	    -13.04510868	      8.75951565	     -6.46003755	      7.54561645	      4.69369205	     42.37608575	    -13.00120826	     -9.88895959	     88.17648286	     44.95180674	      0.00000000	      0.00000000	    -10.65608747	     -8.26895051	     13.49315841	     25.89006867	     43.60806218	      0.00000000	      0.00000000
     55.02442857	     -5.32210528	     -5.75768396	      3.13873549	      0.98680367	      0.91378390	      0.44989368	     -4.28184809	      4.62700877	    -17.53841409	      8.95546432	      8.95546432	     18.75292834	      8.70815263	     -1.97122316	     32.34136907	     -6.37309772	     -3.25673904	     24.01224978	     24.01224978	      2.58178197	    -13.67506134	      8.60085855	     -6.25095788	      7.41337090	      4.67193123	     42.57837434	    -12.96460329	     -9.88393336	     88.77489571	     44.93553037	      0.00000000	      0.00000000	    -11.38579375	     -8.30479739	     13.48208167	     25.84371024	     43.60575667	      0.00000000	      0.00000000
     55.03678571	     -5.63089465	     -5.52625893	      3.00604206	      0.98820819	      0.91345793	      0.44720327	     -3.93757801	      3.91828103	    -17.64615701	     10.24200188	     10.24200188	     19.17625721	      8.69562673	     -1.89572799	     32.13836899	     -5.84308616	     -2.75468101	     24.32181485	     24.32181485	      2.43569581	    -14.75208183	      8.37499350	     -5.94276007	      7.20106203	      4.63276586	     42.26703912	    -13.02522312	     -9.78324800	     90.37869648	     44.89065244	      0.00000000	      0.00000000	    -12.10442989	     -8.40598114	     13.32153181	     26.50646092	     43.65706497	      0.00000000	      0.00000000
     55.04914286	     -5.76589052	     -5.31895505	      2.91684853	      0.98968446	      0.91376694	      0.44435561	     -3.90338940	      3.28512002	    -17.67939267	     11.25090259	     11.25090259	     19.35487129	      8.69148475	     -1.74959945	     31.78473943	     -5.42902723	     -2.54072593	     24.67029166	     24.67029166	      2.66279936	    -15.29545406	      8.06631464	     -5.83538074	      7.03499101	      4.78597188	     41.77263026	    -13.41811126	     -9.91680142	     91.59304023	     44.87369715	      0.00000000	      0.00000000	    -12.47451088	     -8.47613640	     13.16853581	     26.89341582	     43.74671039	      0.00000000	      0.00000000
     55.06150000	     -5.88357861	     -5.09287162	      2.88023241	      0.99098037	      0.91441595	      0.44134058	     -3.76002383	      2.60260303	    -17.61437820	     12.45307366	     12.45307366	     19.33598685	      8.39385720	     -1.97083989	     31.40211734	     -5.01497276	     -2.46434284	     24.94990025	     24.94990025	      3.14737658	    -15.55460546	      7.86607160	     -5.75355796	      6.85613824	      4.60582689	     41.38863346	    -13.49634684	     -9.94437106	     91.98281322	     44.86624451	      0.00000000	      0.00000000	    -12.65103098	     -8.45968795	     13.14943326	     26.80636749	     43.76840869	      0.00000000	      0.00000000
     55.07385714	     -6.00435622	     -4.83382022	      2.88493769	      0.99211515	      0.91535931	      0.43813155	     -3.43619380	      1.81408413	    -17.58727704	     13.96680139	     13.96680139	     19.21582570	      8.02723094	     -2.37726730	     30.95950681	     -4.55052884	     -2.42264285	     25.07448107	     25.07448107	      3.68402757	    -15.75601852	      7.73872492	     -5.67508420	      6.66217882	      4.44816758	     40.75402198	    -13.68672998	     -9.98623795	     92.40639871	     44.85723808	      0.00000000	      0.00000000	    -12.64728936	     -8.45000090	     13.10637459	     26.74248556	     43.79667174	      0.00000000	      0.00000000
     55.08621429	     -5.93540859	     -4.77962774	      3.02904145	      0.99331250	      0.91685055	      0.43475693	     -3.42804201	      1.30825703	    -17.61997700	     15.21237158	     15.21237158	     18.81094496	      7.70140615	     -2.62600399	     30.30115613	     -4.25584764	     -2.24596870	     25.11837971	     25.11837971	      4.30537915	    -15.79660540	      7.55441659	     -5.79605451	      6.70852547	      4.06810357	     39.88286917	    -13.86346481	    -10.04982786	     92.44516786	     44.85707819	      0.00000000	      0.00000000	    -12.56066607	     -8.36407257	     13.09571639	     26.73045644	     43.80874380	      0.00000000	      0.00000000
     55.09857143	     -6.22733705	     -4.40462409	      3.00090119	      0.99391503	      0.91788040	      0.43138422	     -2.32081267	      0.17158234	    -17.48598934	     17.80146903	     17.80146903	     18.43944966	      6.98613561	     -3.77698134	     29.87833902	     -3.68899524	     -2.48027011	     24.89577726	     24.89577726	      4.84184294	    -15.77749742	      7.54593431	     -5.62776498	      6.37875182	      4.08364085	     38.88333433	    -14.28681335	    -10.21285904	     92.92703883	     44.85004118	      0.00000000	      0.00000000	    -12.15757977	     -8.37483809	     13.00790281	     26.69742048	     43.85528903	      0.00000000	      0.00000000
